<svg xmlns="http://www.w3.org/2000/svg" width="960" height="240" viewBox="0 0 960 240" role="img" aria-labelledby="title desc">
  <title id="title">Mirochill creative profile</title>
  <desc id="desc">Animated dark banner featuring Mirochill's creative direction, interface design and AI-native prototyping.</desc>
  <defs>
    <linearGradient id="bg" x1="0" y1="0" x2="1" y2="1">
      <stop offset="0" stop-color="#050713"/>
      <stop offset="0.52" stop-color="#090D1D"/>
      <stop offset="1" stop-color="#101831"/>
    </linearGradient>
    <linearGradient id="brand" x1="0" y1="0" x2="1" y2="0">
      <stop offset="0" stop-color="#A78BFA"/>
      <stop offset="0.48" stop-color="#60A5FA"/>
      <stop offset="1" stop-color="#22D3EE"/>
    </linearGradient>
    <linearGradient id="crystal" x1="0" y1="0" x2="1" y2="1">
      <stop offset="0" stop-color="#EDE9FE"/>
      <stop offset="0.26" stop-color="#A78BFA"/>
      <stop offset="0.58" stop-color="#3B82F6"/>
      <stop offset="1" stop-color="#06B6D4"/>
    </linearGradient>
    <linearGradient id="glass" x1="0" y1="0" x2="1" y2="1">
      <stop offset="0" stop-color="#FFFFFF" stop-opacity=".11"/>
      <stop offset="1" stop-color="#FFFFFF" stop-opacity=".025"/>
    </linearGradient>
    <radialGradient id="auraViolet">
      <stop offset="0" stop-color="#7C3AED" stop-opacity=".34"/>
      <stop offset="1" stop-color="#7C3AED" stop-opacity="0"/>
    </radialGradient>
    <radialGradient id="auraCyan">
      <stop offset="0" stop-color="#06B6D4" stop-opacity=".24"/>
      <stop offset="1" stop-color="#06B6D4" stop-opacity="0"/>
    </radialGradient>
    <filter id="softGlow" x="-100%" y="-100%" width="300%" height="300%">
      <feGaussianBlur stdDeviation="13"/>
    </filter>
    <filter id="crystalGlow" x="-100%" y="-100%" width="300%" height="300%">
      <feGaussianBlur in="SourceGraphic" stdDeviation="6" result="blur"/>
      <feMerge><feMergeNode in="blur"/><feMergeNode in="SourceGraphic"/></feMerge>
    </filter>
    <filter id="shadow" x="-40%" y="-40%" width="180%" height="180%">
      <feGaussianBlur in="SourceAlpha" stdDeviation="8" result="shadowBlur"/>
      <feOffset in="shadowBlur" dy="8" result="shadowOffset"/>
      <feFlood flood-color="#020617" flood-opacity=".55" result="shadowColor"/>
      <feComposite in="shadowColor" in2="shadowOffset" operator="in" result="shadow"/>
      <feMerge><feMergeNode in="shadow"/><feMergeNode in="SourceGraphic"/></feMerge>
    </filter>
    <pattern id="grid" width="28" height="28" patternUnits="userSpaceOnUse">
      <path d="M28 0H0V28" fill="none" stroke="#94A3B8" stroke-opacity=".075" stroke-width="1"/>
    </pattern>
    <clipPath id="clip"><rect x="1" y="1" width="958" height="238" rx="28"/></clipPath>
  </defs>

  <style>
    .spin-slow { transform-box:view-box; transform-origin:780px 120px; animation:spin 22s linear infinite; }
    .spin-fast { transform-box:view-box; transform-origin:780px 120px; animation:spinReverse 13s linear infinite; }
    .float-a { animation:floatA 5.2s ease-in-out infinite; }
    .float-b { animation:floatB 6.1s ease-in-out infinite; }
    .float-c { animation:floatC 5.7s ease-in-out infinite; }
    .pulse { transform-box:view-box; transform-origin:780px 120px; animation:pulse 4.2s ease-in-out infinite; }
    .dash { stroke-dasharray:9 12; animation:dash 8s linear infinite; }
    .trace { stroke-dasharray:44 240; animation:trace 5.6s linear infinite; }
    .spark { animation:twinkle 3.6s ease-in-out infinite; }
    .spark.s2 { animation-delay:.9s; }
    .spark.s3 { animation-delay:1.8s; }
    .sweep { animation:sweep 6.5s ease-in-out infinite; }
    @keyframes spin { to { transform:rotate(360deg); } }
    @keyframes spinReverse { to { transform:rotate(-360deg); } }
    @keyframes floatA { 0%,100% { transform:translateY(0) } 50% { transform:translateY(-6px) } }
    @keyframes floatB { 0%,100% { transform:translateY(0) } 50% { transform:translateY(7px) } }
    @keyframes floatC { 0%,100% { transform:translate(0,0) } 50% { transform:translate(-5px,-4px) } }
    @keyframes pulse { 0%,100% { transform:scale(.96); opacity:.78 } 50% { transform:scale(1.045); opacity:1 } }
    @keyframes dash { to { stroke-dashoffset:-84; } }
    @keyframes trace { to { stroke-dashoffset:-284; } }
    @keyframes twinkle { 0%,100% { opacity:.2 } 50% { opacity:1 } }
    @keyframes sweep { 0%,16% { transform:translateX(-190px); opacity:0 } 42% { opacity:.34 } 68%,100% { transform:translateX(650px); opacity:0 } }
    @media (prefers-reduced-motion: reduce) {
      .spin-slow,.spin-fast,.float-a,.float-b,.float-c,.pulse,.dash,.trace,.spark,.sweep { animation:none; }
    }
  </style>

  <g clip-path="url(#clip)">
    <rect width="960" height="240" fill="url(#bg)"/>
    <ellipse cx="190" cy="258" rx="330" ry="185" fill="url(#auraViolet)" opacity=".55"/>
    <ellipse cx="790" cy="95" rx="255" ry="210" fill="url(#auraCyan)" opacity=".55"/>
    <rect x="520" width="440" height="240" fill="url(#grid)" opacity=".6"/>
    <path d="M0 204C170 172 290 231 456 196C625 160 754 186 960 140" fill="none" stroke="#818CF8" stroke-opacity=".12"/>
    <path d="M0 220C185 186 315 241 478 210C655 176 800 199 960 168" fill="none" stroke="#22D3EE" stroke-opacity=".09"/>

    <g class="spark" fill="#C4B5FD">
      <circle cx="66" cy="32" r="2"/><circle cx="506" cy="48" r="2.2"/><circle cx="582" cy="198" r="1.8"/>
    </g>
    <g class="spark s2" fill="#67E8F9">
      <circle cx="552" cy="26" r="1.6"/><circle cx="916" cy="42" r="2"/><circle cx="902" cy="205" r="1.5"/>
    </g>
    <g class="spark s3" fill="#93C5FD">
      <circle cx="449" cy="26" r="1.5"/><circle cx="688" cy="214" r="2"/>
    </g>

    <g>
      <rect x="34" y="24" width="228" height="29" rx="14.5" fill="#111827" fill-opacity=".82" stroke="#334155"/>
      <circle cx="52" cy="38.5" r="4" fill="#22D3EE"/>
      <text x="65" y="43" fill="#A5B4FC" font-family="ui-monospace, SFMono-Regular, Menlo, Consolas, monospace" font-size="11.5" letter-spacing="1.15">MIROCHILL / CREATIVE LAB</text>
    </g>

    <text x="34" y="112" fill="#F8FAFC" font-family="Inter, ui-sans-serif, system-ui, -apple-system, Segoe UI, sans-serif" font-size="57" font-weight="850" letter-spacing="2.2">MIROCHILL</text>
    <rect x="34" y="124" width="426" height="4" rx="2" fill="url(#brand)"/>
    <rect class="sweep" x="34" y="124" width="120" height="4" rx="2" fill="#FFFFFF" opacity=".32" filter="url(#softGlow)"/>
    <text x="34" y="163" fill="#E2E8F0" font-family="Inter, ui-sans-serif, system-ui, -apple-system, Segoe UI, sans-serif" font-size="20" font-weight="650">Designing ideas that feel inevitable.</text>
    <text x="34" y="190" fill="#94A3B8" font-family="Inter, ui-sans-serif, system-ui, -apple-system, Segoe UI, sans-serif" font-size="14">Product direction · interface design · AI-native prototyping</text>

    <g font-family="ui-monospace, SFMono-Regular, Menlo, Consolas, monospace" font-size="10.5" font-weight="700" letter-spacing=".9">
      <rect x="34" y="204" width="112" height="24" rx="12" fill="#7C3AED" fill-opacity=".14" stroke="#A78BFA" stroke-opacity=".5"/>
      <text x="51" y="220" fill="#DDD6FE">IDEA FIRST</text>
      <rect x="156" y="204" width="126" height="24" rx="12" fill="#2563EB" fill-opacity=".13" stroke="#60A5FA" stroke-opacity=".5"/>
      <text x="173" y="220" fill="#BFDBFE">CLEAR SYSTEMS</text>
      <rect x="292" y="204" width="120" height="24" rx="12" fill="#0891B2" fill-opacity=".13" stroke="#22D3EE" stroke-opacity=".48"/>
      <text x="309" y="220" fill="#A5F3FC">BOLD OUTPUT</text>
    </g>

    <g filter="url(#shadow)">
      <rect x="592" y="20" width="340" height="200" rx="28" fill="url(#glass)" stroke="#94A3B8" stroke-opacity=".16"/>
      <rect x="604" y="32" width="316" height="176" rx="22" fill="#020617" fill-opacity=".2" stroke="#FFFFFF" stroke-opacity=".035"/>
    </g>

    <g fill="none" stroke-linecap="round">
      <path class="trace" d="M652 78C694 50 728 60 759 91" stroke="url(#brand)" stroke-width="1.5" opacity=".75"/>
      <path class="trace" d="M805 92C839 58 876 62 896 84" stroke="url(#brand)" stroke-width="1.5" opacity=".75" style="animation-delay:1.4s"/>
      <path class="trace" d="M808 148C844 178 874 181 901 164" stroke="url(#brand)" stroke-width="1.5" opacity=".75" style="animation-delay:2.8s"/>
    </g>

    <g class="spin-slow" fill="none" stroke="url(#brand)">
      <ellipse cx="780" cy="120" rx="102" ry="54" stroke-width="1.2" stroke-opacity=".6"/>
      <circle cx="882" cy="120" r="4.5" fill="#A78BFA" stroke="none" filter="url(#crystalGlow)"/>
    </g>
    <g class="spin-fast" fill="none" stroke="#67E8F9">
      <ellipse cx="780" cy="120" rx="70" ry="94" stroke-width="1" stroke-opacity=".4" transform="rotate(57 780 120)"/>
      <circle cx="780" cy="26" r="3.5" fill="#67E8F9" stroke="none" filter="url(#crystalGlow)"/>
    </g>
    <circle class="dash" cx="780" cy="120" r="78" fill="none" stroke="#818CF8" stroke-opacity=".28" stroke-width="1"/>

    <g class="pulse" filter="url(#crystalGlow)">
      <circle cx="780" cy="120" r="61" fill="#2563EB" opacity=".12" filter="url(#softGlow)"/>
      <path d="M780 76L822 99V141L780 164L738 141V99Z" fill="url(#crystal)"/>
      <path d="M780 76L780 120L738 99Z" fill="#FFFFFF" opacity=".2"/>
      <path d="M780 76L822 99L780 120Z" fill="#FFFFFF" opacity=".1"/>
      <path d="M738 99L780 120L738 141Z" fill="#1D4ED8" opacity=".34"/>
      <path d="M822 99L780 120L822 141Z" fill="#0891B2" opacity=".32"/>
      <path d="M738 141L780 120L780 164Z" fill="#4338CA" opacity=".34"/>
      <path d="M822 141L780 120L780 164Z" fill="#06B6D4" opacity=".28"/>
      <circle cx="766" cy="103" r="8" fill="#FFFFFF" opacity=".23"/>
    </g>

    <g class="float-a" font-family="ui-monospace, SFMono-Regular, Menlo, Consolas, monospace" filter="url(#shadow)">
      <rect x="612" y="47" width="102" height="42" rx="12" fill="#111827" fill-opacity=".88" stroke="#A78BFA" stroke-opacity=".42"/>
      <circle cx="630" cy="67" r="4" fill="#A78BFA"/>
      <text x="641" y="71" fill="#DDD6FE" font-size="10.5" font-weight="700" letter-spacing="1">IDEA</text>
    </g>
    <g class="float-b" font-family="ui-monospace, SFMono-Regular, Menlo, Consolas, monospace" filter="url(#shadow)">
      <rect x="852" y="58" width="70" height="42" rx="12" fill="#111827" fill-opacity=".88" stroke="#60A5FA" stroke-opacity=".42"/>
      <circle cx="868" cy="78" r="4" fill="#60A5FA"/>
      <text x="879" y="82" fill="#BFDBFE" font-size="10" font-weight="700" letter-spacing=".7">UX</text>
    </g>
    <g class="float-c" font-family="ui-monospace, SFMono-Regular, Menlo, Consolas, monospace" filter="url(#shadow)">
      <rect x="840" y="153" width="82" height="42" rx="12" fill="#111827" fill-opacity=".88" stroke="#22D3EE" stroke-opacity=".42"/>
      <circle cx="856" cy="173" r="4" fill="#22D3EE"/>
      <text x="867" y="177" fill="#A5F3FC" font-size="9.5" font-weight="700" letter-spacing=".55">BUILD</text>
    </g>
  </g>
  <rect x="1" y="1" width="958" height="238" rx="28" fill="none" stroke="#334155" stroke-width="2"/>
</svg>
